#usda 1.0
(
    defaultPrim = "E27_Socket_Guide"
    metersPerUnit = 1
    upAxis = "Z"
)

def Xform "E27_Socket_Guide" (
    prepend apiSchemas = ["PhysicsRigidBodyAPI", "PhysicsMassAPI"]
)
{
    bool physics:kinematicEnabled = 1
    bool physics:rigidBodyEnabled = 1
    float physics:mass = 1

    def Xform "guide_collision" (
        prepend apiSchemas = ["MaterialBindingAPI"]
    )
    {
        rel material:binding = </E27_Socket_Guide/Looks/guide_material>
        rel material:binding:physics = </E27_Socket_Guide/Looks/guide_physics_material> (
            bindMaterialAs = "strongerThanDescendants"
        )
        def Mesh "segment_00" (
            prepend apiSchemas = ["PhysicsCollisionAPI", "PhysicsMeshCollisionAPI"]
        )
        {
            uniform bool doubleSided = 0
            uniform token subdivisionScheme = "none"
            bool physics:collisionEnabled = 1
            uniform token physics:approximation = "convexHull"
            point3f[] points = [
                (0.0137644806, 0, -0.053),
            (0.018, 0, -0.053),
            (0.0127167219, 0.00526743869, -0.053),
            (0.0166298316, 0.00688830178, -0.053),
            (0.0137644806, 0, -0.035),
            (0.018, 0, -0.035),
            (0.0127167219, 0.00526743869, -0.035),
            (0.0166298316, 0.00688830178, -0.035)
            ]
            int[] faceVertexCounts = [4, 4, 4, 4, 4, 4]
            int[] faceVertexIndices = [
                0, 2, 3, 1, 4, 5, 7, 6, 0, 4, 6, 2, 1, 3, 7, 5, 0, 1, 5, 4, 2, 6, 7, 3
            ]
        }

        def Mesh "segment_01" (
            prepend apiSchemas = ["PhysicsCollisionAPI", "PhysicsMeshCollisionAPI"]
        )
        {
            uniform bool doubleSided = 0
            uniform token subdivisionScheme = "none"
            bool physics:collisionEnabled = 1
            uniform token physics:approximation = "convexHull"
            point3f[] points = [
                (0.0127167219, 0.00526743869, -0.053),
            (0.0166298316, 0.00688830178, -0.053),
            (0.0097329576, 0.0097329576, -0.053),
            (0.0127279221, 0.0127279221, -0.053),
            (0.0127167219, 0.00526743869, -0.035),
            (0.0166298316, 0.00688830178, -0.035),
            (0.0097329576, 0.0097329576, -0.035),
            (0.0127279221, 0.0127279221, -0.035)
            ]
            int[] faceVertexCounts = [4, 4, 4, 4, 4, 4]
            int[] faceVertexIndices = [
                0, 2, 3, 1, 4, 5, 7, 6, 0, 4, 6, 2, 1, 3, 7, 5, 0, 1, 5, 4, 2, 6, 7, 3
            ]
        }

        def Mesh "segment_02" (
            prepend apiSchemas = ["PhysicsCollisionAPI", "PhysicsMeshCollisionAPI"]
        )
        {
            uniform bool doubleSided = 0
            uniform token subdivisionScheme = "none"
            bool physics:collisionEnabled = 1
            uniform token physics:approximation = "convexHull"
            point3f[] points = [
                (0.0097329576, 0.0097329576, -0.053),
            (0.0127279221, 0.0127279221, -0.053),
            (0.00526743869, 0.0127167219, -0.053),
            (0.00688830178, 0.0166298316, -0.053),
            (0.0097329576, 0.0097329576, -0.035),
            (0.0127279221, 0.0127279221, -0.035),
            (0.00526743869, 0.0127167219, -0.035),
            (0.00688830178, 0.0166298316, -0.035)
            ]
            int[] faceVertexCounts = [4, 4, 4, 4, 4, 4]
            int[] faceVertexIndices = [
                0, 2, 3, 1, 4, 5, 7, 6, 0, 4, 6, 2, 1, 3, 7, 5, 0, 1, 5, 4, 2, 6, 7, 3
            ]
        }

        def Mesh "segment_03" (
            prepend apiSchemas = ["PhysicsCollisionAPI", "PhysicsMeshCollisionAPI"]
        )
        {
            uniform bool doubleSided = 0
            uniform token subdivisionScheme = "none"
            bool physics:collisionEnabled = 1
            uniform token physics:approximation = "convexHull"
            point3f[] points = [
                (0.00526743869, 0.0127167219, -0.053),
            (0.00688830178, 0.0166298316, -0.053),
            (8.42831358e-19, 0.0137644806, -0.053),
            (1.10218212e-18, 0.018, -0.053),
            (0.00526743869, 0.0127167219, -0.035),
            (0.00688830178, 0.0166298316, -0.035),
            (8.42831358e-19, 0.0137644806, -0.035),
            (1.10218212e-18, 0.018, -0.035)
            ]
            int[] faceVertexCounts = [4, 4, 4, 4, 4, 4]
            int[] faceVertexIndices = [
                0, 2, 3, 1, 4, 5, 7, 6, 0, 4, 6, 2, 1, 3, 7, 5, 0, 1, 5, 4, 2, 6, 7, 3
            ]
        }

        def Mesh "segment_04" (
            prepend apiSchemas = ["PhysicsCollisionAPI", "PhysicsMeshCollisionAPI"]
        )
        {
            uniform bool doubleSided = 0
            uniform token subdivisionScheme = "none"
            bool physics:collisionEnabled = 1
            uniform token physics:approximation = "convexHull"
            point3f[] points = [
                (8.42831358e-19, 0.0137644806, -0.053),
            (1.10218212e-18, 0.018, -0.053),
            (-0.00526743869, 0.0127167219, -0.053),
            (-0.00688830178, 0.0166298316, -0.053),
            (8.42831358e-19, 0.0137644806, -0.035),
            (1.10218212e-18, 0.018, -0.035),
            (-0.00526743869, 0.0127167219, -0.035),
            (-0.00688830178, 0.0166298316, -0.035)
            ]
            int[] faceVertexCounts = [4, 4, 4, 4, 4, 4]
            int[] faceVertexIndices = [
                0, 2, 3, 1, 4, 5, 7, 6, 0, 4, 6, 2, 1, 3, 7, 5, 0, 1, 5, 4, 2, 6, 7, 3
            ]
        }

        def Mesh "segment_05" (
            prepend apiSchemas = ["PhysicsCollisionAPI", "PhysicsMeshCollisionAPI"]
        )
        {
            uniform bool doubleSided = 0
            uniform token subdivisionScheme = "none"
            bool physics:collisionEnabled = 1
            uniform token physics:approximation = "convexHull"
            point3f[] points = [
                (-0.00526743869, 0.0127167219, -0.053),
            (-0.00688830178, 0.0166298316, -0.053),
            (-0.0097329576, 0.0097329576, -0.053),
            (-0.0127279221, 0.0127279221, -0.053),
            (-0.00526743869, 0.0127167219, -0.035),
            (-0.00688830178, 0.0166298316, -0.035),
            (-0.0097329576, 0.0097329576, -0.035),
            (-0.0127279221, 0.0127279221, -0.035)
            ]
            int[] faceVertexCounts = [4, 4, 4, 4, 4, 4]
            int[] faceVertexIndices = [
                0, 2, 3, 1, 4, 5, 7, 6, 0, 4, 6, 2, 1, 3, 7, 5, 0, 1, 5, 4, 2, 6, 7, 3
            ]
        }

        def Mesh "segment_06" (
            prepend apiSchemas = ["PhysicsCollisionAPI", "PhysicsMeshCollisionAPI"]
        )
        {
            uniform bool doubleSided = 0
            uniform token subdivisionScheme = "none"
            bool physics:collisionEnabled = 1
            uniform token physics:approximation = "convexHull"
            point3f[] points = [
                (-0.0097329576, 0.0097329576, -0.053),
            (-0.0127279221, 0.0127279221, -0.053),
            (-0.0127167219, 0.00526743869, -0.053),
            (-0.0166298316, 0.00688830178, -0.053),
            (-0.0097329576, 0.0097329576, -0.035),
            (-0.0127279221, 0.0127279221, -0.035),
            (-0.0127167219, 0.00526743869, -0.035),
            (-0.0166298316, 0.00688830178, -0.035)
            ]
            int[] faceVertexCounts = [4, 4, 4, 4, 4, 4]
            int[] faceVertexIndices = [
                0, 2, 3, 1, 4, 5, 7, 6, 0, 4, 6, 2, 1, 3, 7, 5, 0, 1, 5, 4, 2, 6, 7, 3
            ]
        }

        def Mesh "segment_07" (
            prepend apiSchemas = ["PhysicsCollisionAPI", "PhysicsMeshCollisionAPI"]
        )
        {
            uniform bool doubleSided = 0
            uniform token subdivisionScheme = "none"
            bool physics:collisionEnabled = 1
            uniform token physics:approximation = "convexHull"
            point3f[] points = [
                (-0.0127167219, 0.00526743869, -0.053),
            (-0.0166298316, 0.00688830178, -0.053),
            (-0.0137644806, 1.68566272e-18, -0.053),
            (-0.018, 2.20436424e-18, -0.053),
            (-0.0127167219, 0.00526743869, -0.035),
            (-0.0166298316, 0.00688830178, -0.035),
            (-0.0137644806, 1.68566272e-18, -0.035),
            (-0.018, 2.20436424e-18, -0.035)
            ]
            int[] faceVertexCounts = [4, 4, 4, 4, 4, 4]
            int[] faceVertexIndices = [
                0, 2, 3, 1, 4, 5, 7, 6, 0, 4, 6, 2, 1, 3, 7, 5, 0, 1, 5, 4, 2, 6, 7, 3
            ]
        }

        def Mesh "segment_08" (
            prepend apiSchemas = ["PhysicsCollisionAPI", "PhysicsMeshCollisionAPI"]
        )
        {
            uniform bool doubleSided = 0
            uniform token subdivisionScheme = "none"
            bool physics:collisionEnabled = 1
            uniform token physics:approximation = "convexHull"
            point3f[] points = [
                (-0.0137644806, 1.68566272e-18, -0.053),
            (-0.018, 2.20436424e-18, -0.053),
            (-0.0127167219, -0.00526743869, -0.053),
            (-0.0166298316, -0.00688830178, -0.053),
            (-0.0137644806, 1.68566272e-18, -0.035),
            (-0.018, 2.20436424e-18, -0.035),
            (-0.0127167219, -0.00526743869, -0.035),
            (-0.0166298316, -0.00688830178, -0.035)
            ]
            int[] faceVertexCounts = [4, 4, 4, 4, 4, 4]
            int[] faceVertexIndices = [
                0, 2, 3, 1, 4, 5, 7, 6, 0, 4, 6, 2, 1, 3, 7, 5, 0, 1, 5, 4, 2, 6, 7, 3
            ]
        }

        def Mesh "segment_09" (
            prepend apiSchemas = ["PhysicsCollisionAPI", "PhysicsMeshCollisionAPI"]
        )
        {
            uniform bool doubleSided = 0
            uniform token subdivisionScheme = "none"
            bool physics:collisionEnabled = 1
            uniform token physics:approximation = "convexHull"
            point3f[] points = [
                (-0.0127167219, -0.00526743869, -0.053),
            (-0.0166298316, -0.00688830178, -0.053),
            (-0.0097329576, -0.0097329576, -0.053),
            (-0.0127279221, -0.0127279221, -0.053),
            (-0.0127167219, -0.00526743869, -0.035),
            (-0.0166298316, -0.00688830178, -0.035),
            (-0.0097329576, -0.0097329576, -0.035),
            (-0.0127279221, -0.0127279221, -0.035)
            ]
            int[] faceVertexCounts = [4, 4, 4, 4, 4, 4]
            int[] faceVertexIndices = [
                0, 2, 3, 1, 4, 5, 7, 6, 0, 4, 6, 2, 1, 3, 7, 5, 0, 1, 5, 4, 2, 6, 7, 3
            ]
        }

        def Mesh "segment_10" (
            prepend apiSchemas = ["PhysicsCollisionAPI", "PhysicsMeshCollisionAPI"]
        )
        {
            uniform bool doubleSided = 0
            uniform token subdivisionScheme = "none"
            bool physics:collisionEnabled = 1
            uniform token physics:approximation = "convexHull"
            point3f[] points = [
                (-0.0097329576, -0.0097329576, -0.053),
            (-0.0127279221, -0.0127279221, -0.053),
            (-0.00526743869, -0.0127167219, -0.053),
            (-0.00688830178, -0.0166298316, -0.053),
            (-0.0097329576, -0.0097329576, -0.035),
            (-0.0127279221, -0.0127279221, -0.035),
            (-0.00526743869, -0.0127167219, -0.035),
            (-0.00688830178, -0.0166298316, -0.035)
            ]
            int[] faceVertexCounts = [4, 4, 4, 4, 4, 4]
            int[] faceVertexIndices = [
                0, 2, 3, 1, 4, 5, 7, 6, 0, 4, 6, 2, 1, 3, 7, 5, 0, 1, 5, 4, 2, 6, 7, 3
            ]
        }

        def Mesh "segment_11" (
            prepend apiSchemas = ["PhysicsCollisionAPI", "PhysicsMeshCollisionAPI"]
        )
        {
            uniform bool doubleSided = 0
            uniform token subdivisionScheme = "none"
            bool physics:collisionEnabled = 1
            uniform token physics:approximation = "convexHull"
            point3f[] points = [
                (-0.00526743869, -0.0127167219, -0.053),
            (-0.00688830178, -0.0166298316, -0.053),
            (-2.52849407e-18, -0.0137644806, -0.053),
            (-3.30654636e-18, -0.018, -0.053),
            (-0.00526743869, -0.0127167219, -0.035),
            (-0.00688830178, -0.0166298316, -0.035),
            (-2.52849407e-18, -0.0137644806, -0.035),
            (-3.30654636e-18, -0.018, -0.035)
            ]
            int[] faceVertexCounts = [4, 4, 4, 4, 4, 4]
            int[] faceVertexIndices = [
                0, 2, 3, 1, 4, 5, 7, 6, 0, 4, 6, 2, 1, 3, 7, 5, 0, 1, 5, 4, 2, 6, 7, 3
            ]
        }

        def Mesh "segment_12" (
            prepend apiSchemas = ["PhysicsCollisionAPI", "PhysicsMeshCollisionAPI"]
        )
        {
            uniform bool doubleSided = 0
            uniform token subdivisionScheme = "none"
            bool physics:collisionEnabled = 1
            uniform token physics:approximation = "convexHull"
            point3f[] points = [
                (-2.52849407e-18, -0.0137644806, -0.053),
            (-3.30654636e-18, -0.018, -0.053),
            (0.00526743869, -0.0127167219, -0.053),
            (0.00688830178, -0.0166298316, -0.053),
            (-2.52849407e-18, -0.0137644806, -0.035),
            (-3.30654636e-18, -0.018, -0.035),
            (0.00526743869, -0.0127167219, -0.035),
            (0.00688830178, -0.0166298316, -0.035)
            ]
            int[] faceVertexCounts = [4, 4, 4, 4, 4, 4]
            int[] faceVertexIndices = [
                0, 2, 3, 1, 4, 5, 7, 6, 0, 4, 6, 2, 1, 3, 7, 5, 0, 1, 5, 4, 2, 6, 7, 3
            ]
        }

        def Mesh "segment_13" (
            prepend apiSchemas = ["PhysicsCollisionAPI", "PhysicsMeshCollisionAPI"]
        )
        {
            uniform bool doubleSided = 0
            uniform token subdivisionScheme = "none"
            bool physics:collisionEnabled = 1
            uniform token physics:approximation = "convexHull"
            point3f[] points = [
                (0.00526743869, -0.0127167219, -0.053),
            (0.00688830178, -0.0166298316, -0.053),
            (0.0097329576, -0.0097329576, -0.053),
            (0.0127279221, -0.0127279221, -0.053),
            (0.00526743869, -0.0127167219, -0.035),
            (0.00688830178, -0.0166298316, -0.035),
            (0.0097329576, -0.0097329576, -0.035),
            (0.0127279221, -0.0127279221, -0.035)
            ]
            int[] faceVertexCounts = [4, 4, 4, 4, 4, 4]
            int[] faceVertexIndices = [
                0, 2, 3, 1, 4, 5, 7, 6, 0, 4, 6, 2, 1, 3, 7, 5, 0, 1, 5, 4, 2, 6, 7, 3
            ]
        }

        def Mesh "segment_14" (
            prepend apiSchemas = ["PhysicsCollisionAPI", "PhysicsMeshCollisionAPI"]
        )
        {
            uniform bool doubleSided = 0
            uniform token subdivisionScheme = "none"
            bool physics:collisionEnabled = 1
            uniform token physics:approximation = "convexHull"
            point3f[] points = [
                (0.0097329576, -0.0097329576, -0.053),
            (0.0127279221, -0.0127279221, -0.053),
            (0.0127167219, -0.00526743869, -0.053),
            (0.0166298316, -0.00688830178, -0.053),
            (0.0097329576, -0.0097329576, -0.035),
            (0.0127279221, -0.0127279221, -0.035),
            (0.0127167219, -0.00526743869, -0.035),
            (0.0166298316, -0.00688830178, -0.035)
            ]
            int[] faceVertexCounts = [4, 4, 4, 4, 4, 4]
            int[] faceVertexIndices = [
                0, 2, 3, 1, 4, 5, 7, 6, 0, 4, 6, 2, 1, 3, 7, 5, 0, 1, 5, 4, 2, 6, 7, 3
            ]
        }

        def Mesh "segment_15" (
            prepend apiSchemas = ["PhysicsCollisionAPI", "PhysicsMeshCollisionAPI"]
        )
        {
            uniform bool doubleSided = 0
            uniform token subdivisionScheme = "none"
            bool physics:collisionEnabled = 1
            uniform token physics:approximation = "convexHull"
            point3f[] points = [
                (0.0127167219, -0.00526743869, -0.053),
            (0.0166298316, -0.00688830178, -0.053),
            (0.0137644806, -3.37132543e-18, -0.053),
            (0.018, -4.40872848e-18, -0.053),
            (0.0127167219, -0.00526743869, -0.035),
            (0.0166298316, -0.00688830178, -0.035),
            (0.0137644806, -3.37132543e-18, -0.035),
            (0.018, -4.40872848e-18, -0.035)
            ]
            int[] faceVertexCounts = [4, 4, 4, 4, 4, 4]
            int[] faceVertexIndices = [
                0, 2, 3, 1, 4, 5, 7, 6, 0, 4, 6, 2, 1, 3, 7, 5, 0, 1, 5, 4, 2, 6, 7, 3
            ]
        }

    }

    def Scope "Looks"
    {
        def Material "guide_material"
        {
            token outputs:surface.connect = </E27_Socket_Guide/Looks/guide_material/PreviewSurface.outputs:surface>

            def Shader "PreviewSurface"
            {
                uniform token info:id = "UsdPreviewSurface"
                color3f inputs:diffuseColor = (0.18, 0.22, 0.28)
                float inputs:metallic = 0.8
                float inputs:roughness = 0.35
                token outputs:surface
            }
        }

        def Material "guide_physics_material" (
            prepend apiSchemas = ["PhysicsMaterialAPI", "PhysxMaterialAPI"]
        )
        {
            float physics:staticFriction = 0.1
            float physics:dynamicFriction = 0.08
            float physics:restitution = 0
            uniform token physxMaterial:frictionCombineMode = "min"
            uniform token physxMaterial:restitutionCombineMode = "min"
        }
    }
}
