#usda 1.0
(
    defaultPrim = "E27_Socket_Guide"
    metersPerUnit = 1
    upAxis = "Z"
)

def Xform "E27_Socket_Guide" (
    prepend apiSchemas = ["PhysicsRigidBodyAPI", "PhysicsMassAPI"]
)
{
    bool physics:kinematicEnabled = 1
    bool physics:rigidBodyEnabled = 1
    float physics:mass = 1

    def Mesh "guide_collision" (
        prepend apiSchemas = ["PhysicsCollisionAPI", "PhysicsMeshCollisionAPI", "MaterialBindingAPI"]
    )
    {
        rel material:binding = </E27_Socket_Guide/Looks/guide_material>
        rel material:binding:physics = </E27_Socket_Guide/Looks/guide_physics_material> (
            bindMaterialAs = "strongerThanDescendants"
        )
        bool physics:collisionEnabled = 1
        uniform token physics:approximation = "convexDecomposition"
        uniform bool doubleSided = 0
        uniform token subdivisionScheme = "none"

        point3f[] points = [
            (0.0155, 0, -0.052), (0.021, 0, -0.052), (0.0155, 0, -0.04), (0.021, 0, -0.04),
            (0.01497185, 0.004011695, -0.052), (0.020284442, 0.0054352, -0.052), (0.01497185, 0.004011695, -0.04), (0.020284442, 0.0054352, -0.04),
            (0.013423394, 0.00775, -0.052), (0.018186533, 0.0105, -0.052), (0.013423394, 0.00775, -0.04), (0.018186533, 0.0105, -0.04),
            (0.010960155, 0.010960155, -0.052), (0.014849242, 0.014849242, -0.052), (0.010960155, 0.010960155, -0.04), (0.014849242, 0.014849242, -0.04),
            (0.00775, 0.013423394, -0.052), (0.0105, 0.018186533, -0.052), (0.00775, 0.013423394, -0.04), (0.0105, 0.018186533, -0.04),
            (0.004011695, 0.01497185, -0.052), (0.0054352, 0.020284442, -0.052), (0.004011695, 0.01497185, -0.04), (0.0054352, 0.020284442, -0.04),
            (0, 0.0155, -0.052), (0, 0.021, -0.052), (0, 0.0155, -0.04), (0, 0.021, -0.04),
            (-0.004011695, 0.01497185, -0.052), (-0.0054352, 0.020284442, -0.052), (-0.004011695, 0.01497185, -0.04), (-0.0054352, 0.020284442, -0.04),
            (-0.00775, 0.013423394, -0.052), (-0.0105, 0.018186533, -0.052), (-0.00775, 0.013423394, -0.04), (-0.0105, 0.018186533, -0.04),
            (-0.010960155, 0.010960155, -0.052), (-0.014849242, 0.014849242, -0.052), (-0.010960155, 0.010960155, -0.04), (-0.014849242, 0.014849242, -0.04),
            (-0.013423394, 0.00775, -0.052), (-0.018186533, 0.0105, -0.052), (-0.013423394, 0.00775, -0.04), (-0.018186533, 0.0105, -0.04),
            (-0.01497185, 0.004011695, -0.052), (-0.020284442, 0.0054352, -0.052), (-0.01497185, 0.004011695, -0.04), (-0.020284442, 0.0054352, -0.04),
            (-0.0155, 0, -0.052), (-0.021, 0, -0.052), (-0.0155, 0, -0.04), (-0.021, 0, -0.04),
            (-0.01497185, -0.004011695, -0.052), (-0.020284442, -0.0054352, -0.052), (-0.01497185, -0.004011695, -0.04), (-0.020284442, -0.0054352, -0.04),
            (-0.013423394, -0.00775, -0.052), (-0.018186533, -0.0105, -0.052), (-0.013423394, -0.00775, -0.04), (-0.018186533, -0.0105, -0.04),
            (-0.010960155, -0.010960155, -0.052), (-0.014849242, -0.014849242, -0.052), (-0.010960155, -0.010960155, -0.04), (-0.014849242, -0.014849242, -0.04),
            (-0.00775, -0.013423394, -0.052), (-0.0105, -0.018186533, -0.052), (-0.00775, -0.013423394, -0.04), (-0.0105, -0.018186533, -0.04),
            (-0.004011695, -0.01497185, -0.052), (-0.0054352, -0.020284442, -0.052), (-0.004011695, -0.01497185, -0.04), (-0.0054352, -0.020284442, -0.04),
            (0, -0.0155, -0.052), (0, -0.021, -0.052), (0, -0.0155, -0.04), (0, -0.021, -0.04),
            (0.004011695, -0.01497185, -0.052), (0.0054352, -0.020284442, -0.052), (0.004011695, -0.01497185, -0.04), (0.0054352, -0.020284442, -0.04),
            (0.00775, -0.013423394, -0.052), (0.0105, -0.018186533, -0.052), (0.00775, -0.013423394, -0.04), (0.0105, -0.018186533, -0.04),
            (0.010960155, -0.010960155, -0.052), (0.014849242, -0.014849242, -0.052), (0.010960155, -0.010960155, -0.04), (0.014849242, -0.014849242, -0.04),
            (0.013423394, -0.00775, -0.052), (0.018186533, -0.0105, -0.052), (0.013423394, -0.00775, -0.04), (0.018186533, -0.0105, -0.04),
            (0.01497185, -0.004011695, -0.052), (0.020284442, -0.0054352, -0.052), (0.01497185, -0.004011695, -0.04), (0.020284442, -0.0054352, -0.04)
        ]
        int[] faceVertexCounts = [
            4, 4, 4, 4, 4, 4, 4, 4, 4, 4, 4, 4, 4, 4, 4, 4,
            4, 4, 4, 4, 4, 4, 4, 4, 4, 4, 4, 4, 4, 4, 4, 4,
            4, 4, 4, 4, 4, 4, 4, 4, 4, 4, 4, 4, 4, 4, 4, 4,
            4, 4, 4, 4, 4, 4, 4, 4, 4, 4, 4, 4, 4, 4, 4, 4,
            4, 4, 4, 4, 4, 4, 4, 4, 4, 4, 4, 4, 4, 4, 4, 4,
            4, 4, 4, 4, 4, 4, 4, 4, 4, 4, 4, 4, 4, 4, 4, 4
        ]
        int[] faceVertexIndices = [
            0, 4, 5, 1, 2, 3, 7, 6, 0, 2, 6, 4, 1, 5, 7, 3,
            4, 8, 9, 5, 6, 7, 11, 10, 4, 6, 10, 8, 5, 9, 11, 7,
            8, 12, 13, 9, 10, 11, 15, 14, 8, 10, 14, 12, 9, 13, 15, 11,
            12, 16, 17, 13, 14, 15, 19, 18, 12, 14, 18, 16, 13, 17, 19, 15,
            16, 20, 21, 17, 18, 19, 23, 22, 16, 18, 22, 20, 17, 21, 23, 19,
            20, 24, 25, 21, 22, 23, 27, 26, 20, 22, 26, 24, 21, 25, 27, 23,
            24, 28, 29, 25, 26, 27, 31, 30, 24, 26, 30, 28, 25, 29, 31, 27,
            28, 32, 33, 29, 30, 31, 35, 34, 28, 30, 34, 32, 29, 33, 35, 31,
            32, 36, 37, 33, 34, 35, 39, 38, 32, 34, 38, 36, 33, 37, 39, 35,
            36, 40, 41, 37, 38, 39, 43, 42, 36, 38, 42, 40, 37, 41, 43, 39,
            40, 44, 45, 41, 42, 43, 47, 46, 40, 42, 46, 44, 41, 45, 47, 43,
            44, 48, 49, 45, 46, 47, 51, 50, 44, 46, 50, 48, 45, 49, 51, 47,
            48, 52, 53, 49, 50, 51, 55, 54, 48, 50, 54, 52, 49, 53, 55, 51,
            52, 56, 57, 53, 54, 55, 59, 58, 52, 54, 58, 56, 53, 57, 59, 55,
            56, 60, 61, 57, 58, 59, 63, 62, 56, 58, 62, 60, 57, 61, 63, 59,
            60, 64, 65, 61, 62, 63, 67, 66, 60, 62, 66, 64, 61, 65, 67, 63,
            64, 68, 69, 65, 66, 67, 71, 70, 64, 66, 70, 68, 65, 69, 71, 67,
            68, 72, 73, 69, 70, 71, 75, 74, 68, 70, 74, 72, 69, 73, 75, 71,
            72, 76, 77, 73, 74, 75, 79, 78, 72, 74, 78, 76, 73, 77, 79, 75,
            76, 80, 81, 77, 78, 79, 83, 82, 76, 78, 82, 80, 77, 81, 83, 79,
            80, 84, 85, 81, 82, 83, 87, 86, 80, 82, 86, 84, 81, 85, 87, 83,
            84, 88, 89, 85, 86, 87, 91, 90, 84, 86, 90, 88, 85, 89, 91, 87,
            88, 92, 93, 89, 90, 91, 95, 94, 88, 90, 94, 92, 89, 93, 95, 91,
            92, 0, 1, 93, 94, 95, 3, 2, 92, 94, 2, 0, 93, 1, 3, 95
        ]
    }

    def Scope "Looks"
    {
        def Material "guide_material"
        {
            token outputs:surface.connect = </E27_Socket_Guide/Looks/guide_material/PreviewSurface.outputs:surface>

            def Shader "PreviewSurface"
            {
                uniform token info:id = "UsdPreviewSurface"
                color3f inputs:diffuseColor = (0.18, 0.22, 0.28)
                float inputs:metallic = 0.8
                float inputs:roughness = 0.35
                token outputs:surface
            }
        }

        def Material "guide_physics_material" (
            prepend apiSchemas = ["PhysicsMaterialAPI", "PhysxMaterialAPI"]
        )
        {
            float physics:staticFriction = 0.1
            float physics:dynamicFriction = 0.08
            float physics:restitution = 0
            uniform token physxMaterial:frictionCombineMode = "min"
            uniform token physxMaterial:restitutionCombineMode = "min"
        }
    }
}
